<svg height="464pt" viewBox="0 0 464 464" width="464pt" 
    xmlns="http://www.w3.org/2000/svg">
    <path d="m96 0h272c53.019531 0 96 42.980469 96 96v272c0 53.019531-42.980469 96-96 96h-272c-53.019531 0-96-42.980469-96-96v-272c0-53.019531 42.980469-96 96-96zm0 0" fill="#d9c2a0"/>
    <path d="m96 32h272c35.347656 0 64 28.652344 64 64v272c0 35.347656-28.652344 64-64 64h-272c-35.347656 0-64-28.652344-64-64v-272c0-35.347656 28.652344-64 64-64zm0 0" fill="#a88e74"/>
    <path d="m32 216h400v32h-400zm0 0" fill="#c1ac8e"/>
</svg>