<svg id="Capa_1" enable-background="new 0 0 512 512" height="512" viewBox="0 0 512 512" width="512" 
    xmlns="http://www.w3.org/2000/svg">
    <g>
        <g>
            <g>
                <path d="m262.185 495.113-6.185-160.957v-59.095h-59.372v220.052z" fill="#efe2dd"/>
            </g>
        </g>
        <g>
            <g>
                <path d="m137.256 275.061h59.372v220.053h-59.372z" fill="#fff5f5"/>
            </g>
        </g>
        <g>
            <path d="m256 334.156h51.217v162.844h-51.217z" fill="#fed843"/>
            <path d="m356.956 334.156h54.173v162.844h-54.173z" fill="#fed843"/>
            <path d="m256 334.156h51.217v45.269h-51.217z" fill="#fabe2c"/>
            <path d="m358.434 334.156h51.217v45.269h-51.217z" fill="#fabe2c"/>
            <path d="m265.106 218.447h-104.559l7-180.227h88.451z" fill="#b95d4f"/>
            <path d="m351.449 218.447h-95.451v-180.227h88.451z" fill="#a14f42"/>
            <path d="m47.993 38.22h59.777v180.227h-59.777z" fill="#fed843"/>
            <path d="m47.993 171.897h59.777v46.549h-59.777z" fill="#fabe2c"/>
            <path d="m107.77 0h59.777v218.447h-59.777z" fill="#fd657d"/>
            <path d="m344.402 0h59.777v218.447h-59.777z" fill="#e33a53"/>
            <path d="m107.77 0h59.777v70.447h-59.777z" fill="#e33a53"/>
            <path d="m344.402 0h59.777v70.447h-59.777z" fill="#ca0813"/>
            <g>
                <g>
                    <g>
                        <g>
                            <g>
                                <path d="m441.534 24.684h30v209.604h-30z" fill="#efe2dd" transform="matrix(.931 -.364 .364 .931 -15.803 175.17)"/>
                            </g>
                        </g>
                        <g>
                            <g>
                                <g>
                                    <path d="m211.773 117.656c7.846 0 15.363-6.899 15-15-.364-8.127-6.591-15-15-15-7.846 0-15.363 6.899-15 15 .364 8.127 6.59 15 15 15z" fill="#a14f42"/>
                                </g>
                            </g>
                        </g>
                        <g>
                            <g>
                                <g>
                                    <path d="m300.22 116.562c7.846 0 15.363-6.899 15-15-.364-8.127-6.591-15-15-15-7.846 0-15.363 6.899-15 15 .364 8.127 6.591 15 15 15z" fill="#873f30"/>
                                </g>
                            </g>
                        </g>
                    </g>
                </g>
                <g>
                    <g>
                        <g>
                            <path d="m196.628 305.114h59.372v29.043h-59.372z" fill="#ddd2cb"/>
                        </g>
                    </g>
                    <g>
                        <g>
                            <path d="m137.256 305.114h59.372v29.043h-59.372z" fill="#efe2dd"/>
                        </g>
                    </g>
                    <g>
                        <g>
                            <path d="m-38.995 382.826h223.295v30h-223.295z" fill="#b95d4f" transform="matrix(.459 -.888 .888 .459 -314.1 279.648)"/>
                        </g>
                    </g>
                </g>
            </g>
            <g>
                <g>
                    <path d="m0 212.089h512v30h-512z" fill="#5b6c76"/>
                </g>
            </g>
            <g>
                <g>
                    <path d="m256 212.089h256v30h-256z" fill="#475a60"/>
                </g>
            </g>
            <path d="m307.217 334.156h51.217v162.844h-51.217z" fill="#fabe2c"/>
            <path d="m409.651 334.156h51.217v162.844h-51.217z" fill="#fabe2c"/>
            <path d="m307.217 334.156h51.217v45.269h-51.217z" fill="#fd9025"/>
            <path d="m409.651 334.156h51.217v45.269h-51.217z" fill="#fd9025"/>
            <g>
                <g>
                    <path d="m0 482h512v30h-512z" fill="#5b6c76"/>
                </g>
            </g>
            <g>
                <g>
                    <path d="m256 482h256v30h-256z" fill="#475a60"/>
                </g>
            </g>
        </g>
    </g>
</svg>