<svg id="Layer_1" enable-background="new 0 0 256 256" height="512" viewBox="0 0 256 256" width="512" xmlns="http://www.w3.org/2000/svg"><g><path d="m16.838 95.814v133.055c0 5.972 4.841 10.813 10.813 10.813h143.059c5.972 0 10.813-4.841 10.813-10.813v-176.416c0-5.972-4.841-10.813-10.813-10.813h-143.059c-5.972 0-10.813 4.841-10.813 10.813v30.4z" fill="#f7e3c7"/><path d="m170.709 241.182h-143.058c-6.79 0-12.313-5.523-12.313-12.312v-133.055c0-.829.671-1.5 1.5-1.5s1.5.671 1.5 1.5v133.055c0 5.135 4.178 9.312 9.313 9.312h143.059c5.135 0 9.313-4.178 9.313-9.312v-176.417c0-5.135-4.178-9.313-9.313-9.313h-143.059c-5.135 0-9.313 4.178-9.313 9.313v30.4c0 .829-.671 1.5-1.5 1.5s-1.5-.671-1.5-1.5v-30.4c0-6.789 5.523-12.313 12.313-12.313h143.059c6.79 0 12.313 5.524 12.313 12.313v176.417c-.001 6.788-5.524 12.312-12.314 12.312z" fill="#3a312a"/><path d="m127.746 30.594h-13.786c-.341-7.879-6.817-14.167-14.78-14.167s-14.439 6.288-14.78 14.167h-13.786c-2.668 0-4.831 2.163-4.831 4.831v13.338c0 2.668 2.163 4.831 4.831 4.831h57.132c2.668 0 4.831-2.163 4.831-4.831v-13.339c0-2.667-2.163-4.83-4.831-4.83zm-28.566 4.333c-2.715 0-4.917-2.201-4.917-4.917s2.201-4.917 4.917-4.917 4.917 2.201 4.917 4.917-2.202 4.917-4.917 4.917z" fill="#87796f"/><path d="m127.746 55.094h-57.132c-3.491 0-6.331-2.84-6.331-6.331v-13.339c0-3.491 2.84-6.331 6.331-6.331h12.411c1.051-8.052 7.889-14.167 16.155-14.167s15.104 6.115 16.154 14.167h12.412c3.491 0 6.331 2.84 6.331 6.331v13.338c0 3.491-2.84 6.332-6.331 6.332zm-57.132-23c-1.837 0-3.331 1.494-3.331 3.331v13.338c0 1.837 1.494 3.331 3.331 3.331h57.132c1.837 0 3.331-1.494 3.331-3.331v-13.339c0-1.836-1.494-3.331-3.331-3.331h-13.786c-.803 0-1.464-.633-1.499-1.435-.309-7.14-6.142-12.732-13.281-12.732s-12.973 5.592-13.282 12.732c-.035.802-.695 1.435-1.498 1.435h-13.786zm28.566 4.333c-3.539 0-6.417-2.878-6.417-6.417 0-3.538 2.878-6.417 6.417-6.417 3.538 0 6.417 2.878 6.417 6.417 0 3.538-2.879 6.417-6.417 6.417zm0-9.833c-1.884 0-3.417 1.533-3.417 3.417s1.533 3.417 3.417 3.417 3.417-1.533 3.417-3.417c0-1.885-1.533-3.417-3.417-3.417z" fill="#3a312a"/><path d="m146.614 92.981h-52.412c-.829 0-1.5-.671-1.5-1.5s.671-1.5 1.5-1.5h52.412c.829 0 1.5.671 1.5 1.5s-.671 1.5-1.5 1.5z" fill="#3a312a"/><path d="m81.292 108.054h-25.947c-1.988 0-3.599-1.611-3.599-3.599v-25.947c0-1.988 1.611-3.599 3.599-3.599h25.947c1.988 0 3.599 1.611 3.599 3.599v25.947c0 1.987-1.611 3.599-3.599 3.599z" fill="#e76b7a"/><g fill="#3a312a"><path d="m81.292 109.554h-25.947c-2.812 0-5.099-2.288-5.099-5.099v-25.948c0-2.812 2.287-5.099 5.099-5.099h25.947c2.811 0 5.099 2.287 5.099 5.099v25.947c0 2.812-2.288 5.1-5.099 5.1zm-25.947-33.145c-1.157 0-2.099.941-2.099 2.099v25.947c0 1.157.941 2.099 2.099 2.099h25.947c1.157 0 2.099-.942 2.099-2.099v-25.948c0-1.157-.942-2.099-2.099-2.099h-25.947z"/><path d="m65.467 99.662c-.384 0-.768-.146-1.06-.439l-8.555-8.555c-.586-.586-.586-1.536 0-2.121.586-.586 1.535-.586 2.121 0l7.494 7.494 13.197-13.197c.586-.586 1.535-.586 2.121 0 .586.585.586 1.536 0 2.121l-14.258 14.257c-.293.293-.676.44-1.06.44z"/><path d="m146.614 142.481h-52.412c-.829 0-1.5-.671-1.5-1.5s.671-1.5 1.5-1.5h52.412c.829 0 1.5.671 1.5 1.5s-.671 1.5-1.5 1.5z"/></g><path d="m81.292 157.554h-25.947c-1.988 0-3.599-1.611-3.599-3.599v-25.947c0-1.988 1.611-3.599 3.599-3.599h25.947c1.988 0 3.599 1.611 3.599 3.599v25.947c0 1.987-1.611 3.599-3.599 3.599z" fill="#e76b7a"/><path d="m81.292 159.054h-25.947c-2.812 0-5.099-2.288-5.099-5.099v-25.947c0-2.812 2.287-5.099 5.099-5.099h25.947c2.811 0 5.099 2.287 5.099 5.099v25.947c0 2.811-2.288 5.099-5.099 5.099zm-25.947-33.145c-1.157 0-2.099.941-2.099 2.099v25.947c0 1.157.941 2.099 2.099 2.099h25.947c1.157 0 2.099-.942 2.099-2.099v-25.947c0-1.157-.942-2.099-2.099-2.099z" fill="#3a312a"/><path d="m65.467 149.162c-.384 0-.768-.146-1.06-.439l-8.555-8.555c-.586-.586-.586-1.536 0-2.121.586-.586 1.535-.586 2.121 0l7.494 7.494 13.197-13.197c.586-.586 1.535-.586 2.121 0 .586.585.586 1.536 0 2.121l-14.258 14.258c-.293.292-.676.439-1.06.439z" fill="#3a312a"/><path d="m146.614 191.981h-52.412c-.829 0-1.5-.671-1.5-1.5s.671-1.5 1.5-1.5h52.412c.829 0 1.5.671 1.5 1.5s-.671 1.5-1.5 1.5z" fill="#3a312a"/><path d="m81.292 207.054h-25.947c-1.988 0-3.599-1.611-3.599-3.599v-25.947c0-1.988 1.611-3.599 3.599-3.599h25.947c1.988 0 3.599 1.611 3.599 3.599v25.947c0 1.987-1.611 3.599-3.599 3.599z" fill="#e76b7a"/><path d="m81.292 208.554h-25.947c-2.812 0-5.099-2.288-5.099-5.099v-25.947c0-2.812 2.287-5.099 5.099-5.099h25.947c2.811 0 5.099 2.287 5.099 5.099v25.947c0 2.811-2.288 5.099-5.099 5.099zm-25.947-33.145c-1.157 0-2.099.941-2.099 2.099v25.947c0 1.157.941 2.099 2.099 2.099h25.947c1.157 0 2.099-.942 2.099-2.099v-25.947c0-1.157-.942-2.099-2.099-2.099z" fill="#3a312a"/><path d="m65.467 198.662c-.384 0-.768-.146-1.06-.439l-8.555-8.555c-.586-.586-.586-1.536 0-2.121.586-.586 1.535-.586 2.121 0l7.494 7.494 13.197-13.197c.586-.586 1.535-.586 2.121 0 .586.585.586 1.536 0 2.121l-14.258 14.258c-.293.292-.676.439-1.06.439z" fill="#3a312a"/><path d="m225.934 25.995s3.41 12.659 13.229 13.246c0 0-13.107 4.525-13.328 14.202 0 0-2.58-13.572-12.932-14.059-.001.001 12.056-1.825 13.031-13.389z" fill="#d4da55"/><path d="m225.833 54.943c-.713 0-1.335-.506-1.472-1.217-.024-.124-2.496-12.417-11.529-12.842-.771-.037-1.388-.651-1.428-1.421-.04-.771.511-1.445 1.273-1.56.441-.069 10.901-1.817 11.761-12.033.061-.725.634-1.301 1.359-1.367.723-.061 1.393.398 1.583 1.101.032.116 3.261 11.626 11.87 12.141.714.043 1.298.584 1.396 1.292s-.319 1.388-.995 1.623c-.121.042-12.124 4.311-12.319 12.819-.018.767-.61 1.396-1.374 1.459-.041.003-.084.005-.125.005zm-7.745-15.73c3.88 1.97 6.234 5.747 7.591 8.878 2.027-4.022 5.945-6.789 8.954-8.429-4.137-1.843-6.787-5.653-8.338-8.724-1.795 4.362-5.275 6.871-8.207 8.275z" fill="#3a312a"/><path d="m204.224 42.976s2.412 8.954 9.357 9.369c0 0-9.271 3.201-9.427 10.045 0 0-1.825-9.6-9.147-9.944-.001 0 8.527-1.291 9.217-9.47z" fill="#d4da55"/><path d="m204.152 63.891c-.713 0-1.337-.507-1.472-1.22-.016-.082-1.705-8.442-7.744-8.726-.771-.037-1.388-.651-1.428-1.421-.039-.771.511-1.445 1.273-1.56.296-.047 7.369-1.243 7.947-8.114.061-.726.635-1.303 1.36-1.368.729-.063 1.392.4 1.582 1.102.021.079 2.229 7.919 7.999 8.265.715.043 1.299.584 1.396 1.293.098.709-.32 1.388-.997 1.622-.081.028-8.287 2.953-8.417 8.662-.018.767-.611 1.397-1.376 1.461-.04.002-.082.004-.123.004zm-4.521-11.528c2.108 1.333 3.525 3.395 4.45 5.281 1.376-2.233 3.517-3.873 5.368-4.974-2.289-1.269-3.887-3.351-4.944-5.225-1.175 2.287-3.018 3.877-4.874 4.918z" fill="#3a312a"/><path d="m204.224 16.318s2.412 8.954 9.357 9.37c0 0-9.271 3.201-9.427 10.045 0 0-1.825-9.6-9.147-9.944-.001 0 8.527-1.292 9.217-9.471z" fill="#d4da55"/><path d="m204.152 37.233c-.713 0-1.337-.507-1.472-1.22-.016-.082-1.705-8.442-7.744-8.726-.771-.037-1.388-.651-1.428-1.421-.039-.77.511-1.445 1.273-1.56.296-.047 7.369-1.243 7.947-8.114.061-.726.635-1.303 1.36-1.368.729-.062 1.392.399 1.582 1.102.021.079 2.229 7.919 7.999 8.265.715.043 1.299.585 1.396 1.294.098.709-.32 1.388-.997 1.622-.081.028-8.287 2.953-8.417 8.662-.018.767-.611 1.397-1.376 1.461-.04.002-.082.003-.123.003zm-4.521-11.527c2.108 1.333 3.525 3.395 4.45 5.281 1.376-2.233 3.517-3.873 5.368-4.974-2.289-1.27-3.887-3.351-4.944-5.225-1.175 2.287-3.018 3.877-4.874 4.918z" fill="#3a312a"/><path d="m191.305 127.082-33.665 66.111 23.75 12.093 56.318-110.598c3.34-6.558.73-14.582-5.828-17.921-6.558-3.34-14.582-.73-17.922 5.828l-16.235 31.883z" fill="#8ac6dd"/><path d="m181.389 206.787c-.229 0-.462-.053-.68-.164l-23.749-12.093c-.355-.181-.623-.495-.746-.873s-.091-.79.089-1.145l33.665-66.111c.376-.739 1.281-1.031 2.018-.656.738.376 1.032 1.279.656 2.018l-32.984 64.774 21.076 10.732 55.638-109.262c1.434-2.815 1.685-6.02.708-9.023-.977-3.004-3.065-5.447-5.88-6.88-2.815-1.434-6.019-1.685-9.023-.708s-5.448 3.065-6.881 5.88l-16.236 31.883c-.376.738-1.279 1.031-2.017.656-.738-.376-1.032-1.279-.656-2.018l16.236-31.883c1.796-3.529 4.86-6.146 8.626-7.372 3.767-1.223 7.783-.909 11.313.888 3.529 1.796 6.147 4.86 7.372 8.626s.91 7.783-.887 11.312l-56.318 110.598c-.267.521-.794.821-1.34.821z" fill="#3a312a"/><path d="m229.429 110.95 5.9-11.585-23.75-12.094-5.899 11.586z" fill="#d4da55"/><path d="m229.429 112.45c-.234 0-.468-.055-.681-.163l-23.749-12.094c-.738-.376-1.032-1.279-.656-2.018l5.899-11.586c.181-.354.495-.622.873-.746s.789-.091 1.145.089l23.749 12.094c.738.376 1.032 1.279.656 2.018l-5.899 11.586c-.181.354-.495.622-.873.746-.151.05-.308.074-.464.074zm-21.732-14.25 21.076 10.732 4.539-8.912-21.076-10.732z" fill="#3a312a"/><path d="m181.392 205.289-23.274 16.284-.475-28.378z" fill="#87796f"/><path d="m158.118 223.073c-.233 0-.467-.054-.682-.164-.494-.252-.809-.756-.818-1.311l-.475-28.378c-.009-.526.259-1.019.705-1.297.447-.278 1.007-.302 1.475-.064l23.75 12.094c.469.239.779.707.816 1.232s-.205 1.032-.637 1.333l-23.275 16.285c-.256.179-.557.27-.859.27zm1.066-27.41.386 23.063 18.915-13.234z" fill="#3a312a"/><path d="m161.018 221.37v7.5c0 3.97-2.14 7.43-5.32 9.31h15.01c5.13 0 9.31-4.18 9.31-9.31v-20.79zm9.69-178.23h-15.01c3.18 1.88 5.32 5.34 5.32 9.31v130.79l19-37.31v-93.48c0-5.13-4.18-9.31-9.31-9.31z" fill="#decaad"/></g></svg>