<?xml version="1.0" encoding="iso-8859-1"?>
<!-- Generator: Adobe Illustrator 19.0.0, SVG Export Plug-In . SVG Version: 6.00 Build 0)  -->
<svg version="1.1" id="Capa_1" 
	xmlns="http://www.w3.org/2000/svg" 
	xmlns:xlink="http://www.w3.org/1999/xlink" x="0px" y="0px" viewBox="0 0 512 512" style="enable-background:new 0 0 512 512;" xml:space="preserve">
	<path style="fill:#81E26F;" d="M270.099,113.81c0.901,8.099-4.799,15.599-13.198,16.5c-0.3,0.3-0.601,0.3-0.901,0.3
	s-0.601,0-0.601,0c-7.8,0-14.099-5.7-15-13.2c-3.6-31.501-22.8-58.801-50.999-72.9c-7.5-3.9-10.501-12.902-6.901-20.101
	c3.9-7.5,12.9-10.499,20.099-6.899c23.101,11.7,41.4,29.7,53.401,51.599C263.5,82.909,268.299,97.909,270.099,113.81z"/>
	<path style="fill:#00C37A;" d="M270.099,113.81c0.901,8.099-4.799,15.599-13.198,16.5c-0.3,0.3-0.601,0.3-0.901,0.3V69.108
	C263.5,82.909,268.299,97.909,270.099,113.81z"/>
	<path style="fill:#FF4F19;" d="M389.2,103.309c-27.9-31.5-70.499-36-107.401-11.1c-7.8,5.4-16.8,8.401-25.8,8.401
	s-17.999-3.001-25.8-8.401c-36.901-24.901-79.2-20.4-107.401,11.1c-25.499,28.2-37.2,74.7-31.8,124.501
	c9.3,83.099,62.1,148.2,120,148.2c12.9,0,24.901-3.3,36.301-9.901c2.699-1.5,5.7-2.1,8.699-2.1s6,0.601,8.699,2.1
	c11.4,6.601,23.401,9.901,36.301,9.901c57.9,0,110.7-65.101,120-148.2C426.4,178.008,414.699,131.509,389.2,103.309z"/>
	<path style="fill:#ED2500;" d="M421,227.809c-9.3,83.099-62.1,148.2-120,148.2c-12.9,0-24.901-3.3-36.301-9.901
	c-2.699-1.5-5.7-2.1-8.699-2.1V100.61c9,0,17.999-3.001,25.8-8.401c36.901-24.901,79.501-20.4,107.401,11.1
	C414.699,131.509,426.4,178.008,421,227.809z"/>
	<path style="fill:#0088FF;" d="M497,466.009c-0.3,0-0.6,0-0.9-0.01c-0.29-0.01-0.58-0.01-0.87-0.03c-0.28,0-0.56-0.02-0.84-0.04
	c-18.49-1.05-33.95-13.2-39.84-29.92c-1.65-4.69-2.55-9.74-2.55-15s0.9-10.31,2.54-15c5.9-16.73,21.38-28.89,39.89-29.92
	c0.27-0.02,0.54-0.04,0.82-0.04c0.28-0.02,0.56-0.03,0.85-0.03c0.3-0.01,0.6-0.01,0.9-0.01c8.4,0,15-6.6,15-15s-6.6-15-15-15H75
	c-41.4,0-75,33.6-75,75s33.6,75,75,75h422c8.4,0,15-6.6,15-15S505.4,466.009,497,466.009z"/>
	<path style="fill:#4B5BE4;" d="M512,481.009c0,8.4-6.6,15-15,15H256v-150h241c8.4,0,15,6.6,15,15s-6.6,15-15,15
	c-0.3,0-0.6,0-0.9,0.01c-0.29,0-0.57,0.01-0.85,0.03c-0.28,0-0.55,0.02-0.82,0.04c-18.51,1.03-33.99,13.19-39.89,29.92
	c-1.64,4.69-2.54,9.74-2.54,15s0.9,10.31,2.55,15c5.89,16.72,21.35,28.87,39.84,29.92c0.28,0.02,0.56,0.04,0.84,0.04
	c0.29,0.02,0.58,0.02,0.87,0.03c0.3,0.01,0.6,0.01,0.9,0.01C505.4,466.009,512,472.609,512,481.009z"/>
	<path style="fill:#EDEDED;" d="M495.23,465.969c-0.28,0-0.56-0.02-0.84-0.04c-18.49-1.05-33.95-13.2-39.84-29.92
	c-1.65-4.69-2.55-9.74-2.55-15s0.9-10.31,2.54-15c5.9-16.73,21.38-28.89,39.89-29.92c0.27-0.02,0.54-0.04,0.82-0.04
	c0.28-0.02,0.56-0.03,0.85-0.03c0.3-0.01,0.6-0.01,0.9-0.01H75c-24.9,0-45,20.1-45,45s20.1,45,45,45h422c-0.3,0-0.6,0-0.9-0.01
	C495.81,465.989,495.52,465.989,495.23,465.969z"/>
	<path style="fill:#D8D7DA;" d="M496.1,466c0.3,0.01,0.6,0.01,0.9,0.01H256v-90h241c-0.3,0-0.6,0-0.9,0.01
	c-0.29,0.01-0.57,0.01-0.85,0.03c-0.28,0-0.55,0.02-0.82,0.04c-18.51,1.03-33.99,13.19-39.89,29.92c-1.64,4.69-2.54,9.74-2.54,15
	s0.9,10.31,2.55,15c5.89,16.72,21.35,28.87,39.84,29.92c0.28,0.02,0.56,0.03,0.84,0.04C495.52,465.989,495.81,465.989,496.1,466z"/>
	<path style="fill:#ADACB2;" d="M454.55,436.009H346c-8.4,0-15-6.6-15-15s6.6-15,15-15h108.54c-1.64,4.69-2.54,9.74-2.54,15
	S452.9,431.319,454.55,436.009z"/>
	<g>
	</g>
	<g>
	</g>
	<g>
	</g>
	<g>
	</g>
	<g>
	</g>
	<g>
	</g>
	<g>
	</g>
	<g>
	</g>
	<g>
	</g>
	<g>
	</g>
	<g>
	</g>
	<g>
	</g>
	<g>
	</g>
	<g>
	</g>
	<g>
	</g>
</svg>
