<svg id="Layer_1" height="512" viewBox="0 0 512 512" width="512" xmlns="http://www.w3.org/2000/svg" data-name="Layer 1"><path d="m268.414 11h-24.828l-2.236 42.055 29.08.033z" fill="#fedb41"/><path d="m343.79 329.89h36.98v19.59h-33.6-39.43-44.47v-19.59h41.08z" fill="#00efd1"/><path d="m343.91 370.02 17.19 130.7-14.12 2.41-27.27-128.96v-.01z" fill="#00efd1"/><path d="m347.17 349.64 3.29 19.26-6.55 1.12-24.2 4.14v.01l-7.56 1.29-4.41-25.8v-.18h39.43z" fill="#00acea"/><path d="m317.89 178.61 25.9 151.28h-39.44l-21.61-126.24v-.01a79.129 79.129 0 0 0 35.05-25.11z" fill="#00acea"/><path d="m267.43 51.02a79.117 79.117 0 1 1 -11.43-.83 79.05 79.05 0 0 1 11.43.83z" fill="#00efd1"/><path d="m263.27 349.48v16.74h-14.54v-16.74-19.59-16.74h14.54v16.74z" fill="#f4b844"/><path d="m207.65 329.89h41.08v19.59h-44.43-39.47-33.6v-19.59h37z" fill="#00efd1"/><path d="m229.26 203.64v.01l-21.61 126.24h-39.42v-.06l25.91-151.38a79.157 79.157 0 0 0 35.12 25.19z" fill="#00acea"/><path d="m204.3 349.48-4.45 25.98-7.56-1.29v-.01l-24.2-4.14-6.55-1.12 3.29-19.26v-.16z" fill="#00acea"/><path d="m192.29 374.16v.01l-27.27 128.96-14.12-2.41 17.19-130.7z" fill="#00efd1"/><path d="m256 79.86a49.375 49.375 0 1 1 -49.38 49.38 49.382 49.382 0 0 1 49.38-49.38z" fill="#00acea"/></svg>