<svg height="480pt" viewBox="0 0 480 480" width="480pt" 
    xmlns="http://www.w3.org/2000/svg">
    <path d="m120 360v40h128v-32l56 56-56 56v-32h-176v-88zm0 0" fill="#af4a47"/>
    <path d="m352 184v-80h-120v32l-56-56 56-56v32h176v128zm0 0" fill="#e4725f"/>
    <path d="m440 336h24c8.800781 0 16 7.199219 16 16s-7.199219 16-16 16h-24zm0 0" fill="#efbe9a"/>
    <path d="m480 480v-32c0-26.5-21.5-48-48-48h-48c-26.5 0-48 21.5-48 48v32zm0 0" fill="#b64f86"/>
    <path d="m456 480v-32c0-26.5-21.5-48-48-48h-24c-26.5 0-48 21.5-48 48v32zm0 0" fill="#e087a6"/>
    <g fill="#db9b7c">
        <path d="m384 400v8c0 13.300781 10.699219 24 24 24s24-10.699219 24-24v-8"/>
        <path d="m376 336h-24c-8.800781 0-16 7.199219-16 16s7.199219 16 16 16h24zm0 0"/>
        <path d="m448 304v56c0 22.101562-17.898438 40-40 40s-40-17.898438-40-40v-56zm0 0"/>
    </g>
    <path d="m400 399.199219c18.300781-3.699219 32-19.800781 32-39.199219v-56h-64v56c0 19.398438 13.699219 35.5 32 39.199219zm0 0" fill="#efbe9a"/>
    <path d="m432 304c0 17.699219-30.300781 32-48 32h-32v-32c0-17.699219 14.300781-32 32-32h48c17.699219 0 32 14.300781 32 32v32c-17.699219 0-32-14.300781-32-32" fill="#a66d43"/>
    <path d="m432 304c0 3.101562.601562 6 1.398438 8.800781 4.203124-6.199219 6.601562-13.300781 6.601562-20.800781 0-7.101562-2.199219-13.800781-6-19.800781-.699219 0-1.300781-.199219-2-.199219h-48c-17.699219 0-32 14.300781-32 32v24.101562c9.101562 5 20.101562 7.898438 32 7.898438 17.699219 0 48-14.300781 48-32zm0 0" fill="#c18e59"/>
    <path d="m104 64h24c8.800781 0 16 7.199219 16 16s-7.199219 16-16 16h-24zm0 0" fill="#efbe9a"/>
    <path d="m144 208v-32c0-26.5-21.5-48-48-48h-48c-26.5 0-48 21.5-48 48v32zm0 0" fill="#2d4d83"/>
    <path d="m120 208v-32c0-26.5-21.5-48-48-48h-24c-26.5 0-48 21.5-48 48v32zm0 0" fill="#4472b2"/>
    <path d="m48 128v8c0 13.300781 10.699219 24 24 24s24-10.699219 24-24v-8" fill="#db9b7c"/>
    <path d="m40 64h-24c-8.800781 0-16 7.199219-16 16s7.199219 16 16 16h24zm0 0" fill="#db9b7c"/>
    <path d="m112 32v56c0 22.101562-17.898438 40-40 40s-40-17.898438-40-40v-56zm0 0" fill="#db9b7c"/>
    <path d="m64 127.199219c18.300781-3.699219 32-19.800781 32-39.199219v-56h-64v56c0 19.398438 13.699219 35.5 32 39.199219zm0 0" fill="#efbe9a"/>
    <path d="m96 32c0 17.699219-30.300781 32-48 32h-32v-32c0-17.699219 14.300781-32 32-32h48c17.699219 0 32 14.300781 32 32v32c-17.699219 0-32-14.300781-32-32" fill="#a66d43"/>
    <path d="m96 32c0 3.101562.601562 6 1.398438 8.800781 4.203124-6.199219 6.601562-13.300781 6.601562-20.800781 0-7.101562-2.199219-13.800781-6-19.800781-.699219 0-1.300781-.199219-2-.199219h-48c-17.699219 0-32 14.300781-32 32v24.101562c9.101562 5 20.101562 7.898438 32 7.898438 17.699219 0 48-14.300781 48-32zm0 0" fill="#c18e59"/>
    <path d="m408 168c-8.800781 0-16-7.199219-16-16s7.199219-16 16-16 16 7.199219 16 16h16c0-14.898438-10.199219-27.300781-24-30.898438v-17.101562h-16v17.101562c-13.800781 3.597657-24 16-24 30.898438 0 17.601562 14.398438 32 32 32 8.800781 0 16 7.199219 16 16s-7.199219 16-16 16-16-7.199219-16-16h-16c0 14.898438 10.199219 27.300781 24 30.898438v17.101562h16v-17.101562c13.800781-3.597657 24-16 24-30.898438 0-17.601562-14.398438-32-32-32zm0 0" fill="#7ecb92"/>
    <path d="m10.339844 338.34375 112.007812-112.003906 11.3125 11.3125-112.003906 112.003906zm0 0" fill="#568e53"/>
    <path d="m104 296c-13.199219 0-24 10.800781-24 24s10.800781 24 24 24 24-10.800781 24-24-10.800781-24-24-24zm0 32c-4.398438 0-8-3.601562-8-8s3.601562-8 8-8 8 3.601562 8 8-3.601562 8-8 8zm0 0" fill="#568e53"/>
    <path d="m40 280c13.199219 0 24-10.800781 24-24s-10.800781-24-24-24-24 10.800781-24 24 10.800781 24 24 24zm0-32c4.398438 0 8 3.601562 8 8s-3.601562 8-8 8-8-3.601562-8-8 3.601562-8 8-8zm0 0" fill="#568e53"/>
</svg>