<svg height="464pt" viewBox="0 0 464 464" width="464pt" 
    xmlns="http://www.w3.org/2000/svg">
    <path d="m96 0h272c53.019531 0 96 42.980469 96 96v272c0 53.019531-42.980469 96-96 96h-272c-53.019531 0-96-42.980469-96-96v-272c0-53.019531 42.980469-96 96-96zm0 0" fill="#d9c2a0"/>
    <path d="m96 32h272c35.347656 0 64 28.652344 64 64v272c0 35.347656-28.652344 64-64 64h-272c-35.347656 0-64-28.652344-64-64v-272c0-35.347656 28.652344-64 64-64zm0 0" fill="#a88e74"/>
    <path d="m32 216h400v32h-400zm0 0" fill="#c1ac8e"/>
    <path d="m96 72h56v144h-56zm0 0" fill="#ea6b65"/>
    <path d="m96 104h56v32h-56zm0 0" fill="#b6534f"/>
    <path d="m152 192h-56c-4.417969 0-8-3.582031-8-8s3.582031-8 8-8h56c4.417969 0 8 3.582031 8 8s-3.582031 8-8 8zm0 0" fill="#b6534f"/>
    <path d="m152 64h56v152h-56zm0 0" fill="#64a8b2"/>
    <path d="m152 96h56v32h-56zm0 0" fill="#e8b35c"/>
    <path d="m152 176h56v16h-56zm0 0" fill="#e8b35c"/>
    <path d="m280 72h56v144h-56zm0 0" fill="#b6534f"/>
    <path d="m280 152h56v32h-56zm0 0" fill="#e8b35c"/>
    <path d="m280 96h56v16h-56zm0 0" fill="#e8b35c"/>
    <path d="m208 64h72v152h-72zm0 0" fill="#6b9777"/>
    <path d="m208 96h72v32h-72zm0 0" fill="#e4e4e2"/>
    <path d="m208 152h72v16h-72zm0 0" fill="#e4e4e2"/>
    <path d="m216 432h-56v-152h56zm0 0" fill="#b6534f"/>
    <path d="m216 344h-56v-32h56zm0 0" fill="#e4e4e2"/>
    <path d="m160 368h56v16h-56zm0 0" fill="#e4e4e2"/>
    <path d="m160 432h-56v-152h56zm0 0" fill="#6b9777"/>
    <path d="m160 344h-56v-32h56zm0 0" fill="#e8b35c"/>
    <path d="m104 392h56v16h-56zm0 0" fill="#e8b35c"/>
    <path d="m275.1875 295.292969 50.363281-24.480469 66.453125 136.703125-50.363281 24.480469zm0 0" fill="#8f563b"/>
    <path d="m313.652344 374.441406 50.367187-24.480468 13.988281 28.777343-50.363281 24.484375zm0 0" fill="#dbdbdb"/>
    <path d="m285.671875 316.878906 7 14.394532 50.359375-24.480469v-.007813l-6.992188-14.386718zm0 0" fill="#70400e"/>
    <path d="m299.664062 345.664062 50.363282-24.484374 6.996094 14.390624-50.367188 24.484376zm0 0" fill="#70400e"/>
    <path d="m216 280h56v152h-56zm0 0" fill="#e78244"/>
    <path d="m216 312h56v32h-56zm0 0" fill="#e8b35c"/>
    <path d="m216 368h56v16h-56zm0 0" fill="#e8b35c"/>
    <g fill="#dbdbdb">
        <path d="m336 112c17.671875 0 32 14.328125 32 32v72h-32zm0 0"/>
        <path d="m96 216h-32v-72c0-17.671875 14.328125-32 32-32zm0 0"/>
        <path d="m72 384v43.304688c7.621094 3.101562 15.773438 4.695312 24 4.695312h8v-80c-17.671875 0-32 14.328125-32 32zm0 0"/>
    </g>
</svg>