<svg height="512" viewBox="0 0 64 64" width="512" xmlns="http://www.w3.org/2000/svg" xmlns:xlink="http://www.w3.org/1999/xlink"><linearGradient id="linear-gradient" gradientUnits="userSpaceOnUse" x1="32" x2="32" y1="17.804" y2="123.749"><stop offset="0" stop-color="#8cc63f"/><stop offset="1" stop-color="#009245"/></linearGradient><linearGradient id="linear-gradient-2" x1="32" x2="32" xlink:href="#linear-gradient" y1="-41.51" y2="65.052"/><linearGradient id="linear-gradient-3" x1="-7.674" x2="-1.977" xlink:href="#linear-gradient" y1="-19.53" y2="-9.888"/><g id="Map"><path d="m61.409 61.847-19.37-7.834c-21.01 8.5-19.807 8.23-20.787 7.834l-20.078-8.121a1.874 1.874 0 0 1 -1.174-1.736v-48.101a1.883 1.883 0 0 1 2.591-1.736l19.37 7.834c21.01-8.5 19.807-8.23 20.787-7.834l20.078 8.121a1.874 1.874 0 0 1 1.174 1.736v48.1a1.883 1.883 0 0 1 -2.591 1.737z" fill="url(#linear-gradient)"/><path d="m3.765 50.728 18.2 7.36 19.37-7.834a1.888 1.888 0 0 1 1.417 0l17.487 7.072v-44.054l-18.2-7.36c-21.01 8.5-19.807 8.23-20.787 7.834l-17.487-7.072z" fill="url(#linear-gradient-2)"/><path d="m41.331 50.254a1.888 1.888 0 0 1 1.417 0l17.487 7.072v-12.833l-17.993-6.246-20.395 13.472-18.082-.991 18.2 7.36z" fill="url(#linear-gradient-3)"/><path d="m64 34.8-20.078-8.122v-24.05c-2.061-.833-1.73-.823-3.765 0v24.05l-16.314 6.6v-24.052l-1.882.761-1.883-.761v24.05l-20.078-8.12v4.044l20.078 8.121v24.05c2.061.833 1.73.823 3.765 0v-24.049l16.314-6.6v24.05l1.882-.761 1.883.761v-24.048l20.078 8.12z" fill="url(#linear-gradient)"/><g fill="#fff"><path d="m3.765 22.693a1 1 0 0 1 -1-1v-15.02a1 1 0 0 1 .441-.826 1.012 1.012 0 0 1 .935-.1l8.518 3.453a1 1 0 1 1 -.753 1.845l-7.141-2.892v13.547a1 1 0 0 1 -1 .993z"/><path d="m19.01 13.836a1 1 0 0 1 -.376-.074l-1.293-.523a1 1 0 1 1 .753-1.844l1.293.523a1 1 0 0 1 -.377 1.918z"/><path d="m60.235 33a1 1 0 0 1 -1-1v-9.37a1 1 0 0 1 2 0v9.37a1 1 0 0 1 -1 1z"/></g></g></svg>