<svg height="480pt" viewBox="0 -3 480.00025 480" width="480pt" 
    xmlns="http://www.w3.org/2000/svg">
    <path d="m168 168h96v240h-96zm0 0" fill="#7ab92d"/>
    <path d="m264 360c-30.925781 0-56-25.070312-56-56v-136h56zm0 0" fill="#a1d51c"/>
    <path d="m168 256h96v32h-96zm0 0" fill="#f8664f"/>
    <path d="m264 288h-56v-32h56zm0 0" fill="#f89c8d"/>
    <path d="m264 120h112v288h-112zm0 0" fill="#fcbc04"/>
    <path d="m336 328v-208h-72v288h112v-40c-22.089844 0-40-17.90625-40-40zm0 0" fill="#e59730"/>
    <path d="m264 168h112v64h-112zm0 0" fill="#aae1f9"/>
    <path d="m264 312h112v32h-112zm0 0" fill="#aae1f9"/>
    <path d="m264 168h72v64h-72zm0 0" fill="#57b7eb"/>
    <path d="m264 344h75.359375c-2.222656-5.039062-3.367187-10.488281-3.359375-16v-16h-72zm0 0" fill="#57b7eb"/>
    <path d="m376 184h96v224h-96zm0 0" fill="#f8664f"/>
    <path d="m376 224h96v32h-96zm0 0" fill="#a1d51c"/>
    <path d="m424 184h48v184c-26.507812 0-48-21.488281-48-48zm0 0" fill="#f89c8d"/>
    <path d="m424 224h48v32h-48zm0 0" fill="#c4f236"/>
    <path d="m97.4375 255.703125 30.910156 8.28125-24.847656 92.730469-30.910156-8.285156zm0 0" fill="#fcbc04"/>
    <path d="m87.039062 294.800781c10.003907 3.863281 20.417969 6.546875 31.042969 8l10.316407-38.800781-30.878907-8zm0 0" fill="#e59730"/>
    <path d="m72.660156 348.472656 30.90625 8.285156c8.535156 2.285157 13.601563 11.058594 11.316406 19.59375l-20.707031 77.273438c-2.285156 8.535156-11.058593 13.601562-19.59375 11.316406l-30.910156-8.285156c-8.535156-2.285156-13.601563-11.058594-11.316406-19.59375l20.707031-77.273438c2.285156-8.535156 11.058594-13.601562 19.597656-11.316406zm0 0" fill="#a1d51c"/>
    <path d="m80.640625 382.160156 8-29.441406-16-4.238281c-4.128906-1.09375-8.519531-.488281-12.203125 1.671875-3.679688 2.164062-6.34375 5.710937-7.398438 9.847656l-21.039062 77.121094c-1.097656 4.105468-.515625 8.480468 1.613281 12.15625 2.132813 3.675781 5.636719 6.355468 9.746094 7.441406l30.882813 8c8.523437 2.292969 17.296874-2.753906 19.597656-11.277344l5.28125-19.839844c-16.273438-11.625-23.636719-32.117187-18.480469-51.441406zm0 0" fill="#7ab92d"/>
    <path d="m280 144c0 75.113281-60.890625 136-136 136s-136-60.886719-136-136c0-75.109375 60.890625-136 136-136s136 60.890625 136 136zm0 0" fill="#f9e109"/>
    <path d="m208 216c-75.109375 0-136-60.886719-136-136 0-20.285156 4.59375-40.304688 13.441406-58.558594-54.128906 25.628906-85.117187 83.652344-76.320312 142.890625s55.308594 105.753907 114.546875 114.550781c59.238281 8.796876 117.261719-22.195312 142.890625-76.320312-18.253906 8.84375-38.273438 13.441406-58.558594 13.4375zm0 0" fill="#fcbc04"/>
    <path d="m248 144c0 57.4375-46.5625 104-104 104s-104-46.5625-104-104 46.5625-104 104-104 104 46.5625 104 104zm0 0" fill="#aae1f9"/>
    <path d="m144 64c-25.179688 0-48.890625 11.855469-64 32 31.851562-23.886719 76.417969-20.71875 104.570312 7.433594 28.148438 28.148437 31.316407 72.71875 7.429688 104.566406 27.546875-20.660156 38.785156-56.628906 27.894531-89.296875s-41.460937-54.703125-75.894531-54.703125zm0 0" fill="#57b7eb"/>
    <path d="m104 240c41.945312 17.398438 90.332031 5.566406 119.515625-29.222656 29.1875-34.789063 32.429687-84.492188 8.003906-122.777344h-127.519531zm0 0" fill="#a1d51c"/>
    <path d="m168 136v-48h-64v152c46.582031 19.359375 100.339844 2.496094 127.519531-40-35.15625-.261719-63.519531-28.839844-63.519531-64zm0 0" fill="#7ab92d"/>
    <path d="m104 200h127.519531c10.773438-16.6875 16.496094-36.136719 16.480469-56 0-2.71875 0-5.359375 0-8h-144zm0 0" fill="#f89c8d"/>
    <path d="m168 136h-64v64h127.519531c-35.15625-.261719-63.519531-28.839844-63.519531-64zm0 0" fill="#f8664f"/>
    <g fill="#39519d">
        <path d="m144 0c-45.429688-.128906-88.207031 21.378906-115.199219 57.921875-2.652343 3.535156-1.933593 8.546875 1.597657 11.199219 3.535156 2.652344 8.550781 1.933594 11.203124-1.601563 23.988282-32.492187 62.011719-51.621093 102.398438-51.519531 56.535156-.011719 106.378906 37.066406 122.625 91.214844 16.246094 54.148437-4.953125 112.542968-52.152344 143.65625-47.199218 31.113281-109.222656 27.578125-152.582031-8.699219-43.359375-36.273437-57.785156-96.699219-35.492187-148.652344 1.746093-4.0625-.132813-8.773437-4.199219-10.519531-4.0625-1.746094-8.773438.136719-10.519531 4.199219-7.742188 17.933593-11.7148442 37.269531-11.679688 56.800781.0546875 56.285156 32.898438 107.378906 84.082031 130.800781l-17.441406 65.359375c-10.125.757813-18.679687 7.804688-21.359375 17.601563l-20.640625 77.277343c-3.410156 12.789063 4.175781 25.925782 16.960937 29.363282l30.878907 8c2.035156.539062 4.132812.804687 6.238281.796875 10.707031.082031 20.167969-6.933594 23.203125-17.199219l20.636719-77.28125c2.597656-9.796875-1.246094-20.171875-9.597656-25.917969l17.519531-65.28125c4.496093.40625 9.007812.566407 13.519531.480469 79.527344 0 144-64.46875 144-144 0-79.527344-64.472656-144-144-144zm-36.878906 374.320312-20.722656 77.28125c-1.167969 4.226563-5.519532 6.722657-9.757813 5.597657l-30.878906-8c-2.066407-.550781-3.820313-1.902344-4.882813-3.757813-1.0625-1.839844-1.351562-4.027344-.796875-6.082031l20.71875-77.4375c.53125-2.050781 1.855469-3.804687 3.679688-4.882813 1.839843-1.0625 4.027343-1.351562 6.078125-.796874l30.960937 8c2.035157.570312 3.761719 1.921874 4.800781 3.757812 1.128907 1.90625 1.417969 4.195312.800782 6.320312zm-9.199219-27.359374-15.523437-4.082032 16.722656-62.160156c5.039062 1.695312 10.164062 3.109375 15.359375 4.242188zm0 0"/>
        <path d="m232.480469 199.199219c3.910156 2.054687 8.746093.550781 10.800781-3.359375 26.316406-51.222656 9.5-114.058594-38.890625-145.289063-48.386719-31.226562-112.570313-20.667969-148.40625 24.414063-35.835937 45.085937-31.640625 109.996094 9.699219 150.089844s106.351562 42.304687 150.316406 5.105468c3.402344-2.828125 3.867188-7.878906 1.039062-11.28125-2.828124-3.398437-7.875-3.867187-11.277343-1.039062-34.445313 28.941406-84.363281 30.085937-120.09375 2.75-35.730469-27.335938-47.683594-75.816406-28.757813-116.632813 18.921875-40.8125 63.652344-63.007812 107.601563-53.398437 43.949219 9.613281 75.328125 48.453125 75.488281 93.441406.046875 15.464844-3.6875 30.707031-10.878906 44.402344-2.054688 3.910156-.550782 8.742187 3.359375 10.796875zm0 0"/>
        <path d="m232 344h-32c-4.417969 0-8 3.582031-8 8s3.582031 8 8 8h32c4.417969 0 8-3.582031 8-8s-3.582031-8-8-8zm0 0"/>
        <path d="m168 310.320312c-4.417969 0-8 3.582032-8 8v89.679688c0 4.417969 3.582031 8 8 8s8-3.582031 8-8v-89.679688c0-4.417968-3.582031-8-8-8zm0 0"/>
        <path d="m312 208h32c4.417969 0 8-3.582031 8-8s-3.582031-8-8-8h-32c-4.417969 0-8 3.582031-8 8s3.582031 8 8 8zm0 0"/>
        <path d="m472 176h-88v-56c0-4.417969-3.582031-8-8-8h-57.679688c-4.417968 0-8 3.582031-8 8s3.582032 8 8 8h49.679688v32h-49.679688c-4.417968 0-8 3.582031-8 8s3.582032 8 8 8h49.679688v48h-72c-4.417969 0-8 3.582031-8 8s3.582031 8 8 8h72v64h-96v-31.28125c0-4.417969-3.582031-8-8-8s-8 3.582031-8 8v135.28125c0 4.417969 3.582031 8 8 8s8-3.582031 8-8v-56h96v56c0 4.417969 3.582031 8 8 8s8-3.582031 8-8v-40h80v40c0 4.417969 3.582031 8 8 8s8-3.582031 8-8v-224c0-4.417969-3.582031-8-8-8zm-88 56h80v16h-80zm80-40v24h-80v-24zm-192 144v-16h96v16zm112 16v-88h80v88zm0 0"/>
        <path d="m136 160c-4.417969 0-8 3.582031-8 8s3.582031 8 8 8h24c4.417969 0 8-3.582031 8-8s-3.582031-8-8-8zm0 0"/>
        <path d="m224 168c0-4.417969-3.582031-8-8-8h-24c-4.417969 0-8 3.582031-8 8s3.582031 8 8 8h24c4.417969 0 8-3.582031 8-8zm0 0"/>
        <path d="m191.519531 96c4.417969 0 8-3.582031 8-8s-3.582031-8-8-8h-87.519531c-4.417969 0-8 3.582031-8 8v120c0 4.417969 3.582031 8 8 8s8-3.582031 8-8h79.519531c4.417969 0 8-3.582031 8-8s-3.582031-8-8-8h-79.519531v-48h104c4.417969 0 8-3.582031 8-8s-3.582031-8-8-8h-104v-32zm0 0"/>
    </g>
</svg>