<svg height="512" viewBox="0 0 58 56" width="512" xmlns="http://www.w3.org/2000/svg"><g id="Page-1" fill="none" fill-rule="evenodd"><g id="044---Reading-Glasses" fill-rule="nonzero"><path id="Shape" d="m9.849 17.979c-.37165846-.0004969-.7123824-.207071-.88469351-.536372-.1723111-.329301-.14778068-.7269993.06369351-1.032628l9.3-13.43c1.0057297-1.45424029 2.7047332-2.26917136 4.4683817-2.14326982 1.7636484.12590153 3.3296622 1.17391233 4.1186183 2.75626982l.98 1.96c.1596977.3197527.1366785.7004141-.0603866.99859274-.1970651.29817863-.5382372.46857407-.895.447-.3567629-.02157407-.6749157-.23184004-.8346134-.55159274l-.98-1.96c-.4734692-.95002051-1.4137176-1.57912059-2.4725182-1.65430899s-2.0785136.41472931-2.6814818 1.28830899l-9.3 13.428c-.1869205.2694426-.4940693.4301165-.822.43z" fill="#35495e"/><path id="Shape" d="m48.457 18.421c-.3284694.0002176-.6361009-.1608872-.823-.431l-9.606-13.871c-.6033916-.8729224-1.6230474-1.362135-2.6815185-1.28654459-1.0584711.0755904-1.9982597.70473615-2.4714815 1.65454459l-.98 1.96c-.2468713.49429485-.8477051.69487128-1.342.448s-.6948713-.84770515-.448-1.342l.98-1.96c.7889028-1.58202129 2.3545611-2.62986937 4.1178701-2.7559667 1.7633089-.12609733 3.4621398.68830137 4.4681299 2.1419667l9.607 13.873c.2114742.3056287.2360046.703327.0636935 1.032628s-.513035.5358751-.8846935.536372z" fill="#35495e"/><path id="Shape" d="m4.024 38.264-3.9 11.066c-.2172228.6109407-.12478692 1.289277.24798421 1.8198201s.97961247.8474469 1.62801579.8501799h20c0 2.21 3.13 4 7 4s7-1.79 7-4h20c.6491104-.0014392 1.2571506-.3178092 1.630858-.8485532s.4665961-1.2098423.249142-1.8214468l-3.88-11.03z" fill="#a56a43"/><path id="Shape" d="m36 52c0 2.21-3.13 4-7 4s-7-1.79-7-4l1-4h12z" fill="#603e26"/><path id="Shape" d="m8.08 38.789-3.246 9.211h23.16 2.02 23.16l-3.404-9.658z" fill="#805333"/><path id="Shape" d="m54.88 42.01c-13.29-4.43-20.19.16-23.43 3.99-1.0320286 1.1888344-1.8599103 2.540478-2.45 4v-29.13l19.78-.11 7.37 19.98c.1236364.3611176.0309198.7611201-.23898 1.03102-.2698999.2698998-.6699024.3626164-1.03102.23898z" fill="#f5efca"/><path id="Shape" d="m29 20.87v29.13c-.5900897-1.459522-1.4179714-2.8111656-2.45-4-3.23-3.83-10.13-8.42-23.43-3.99-.35984032.1184308-.75570892.0233582-1.02252015-.2455706-.26681123-.2689287-.35875154-.6655365-.23747985-1.0244294l4.27-12.12v-7.62z" fill="#f9eab0"/><g fill="#3f5c6c"><path id="Shape" d="m34 25c-.5522847 0-1-.4477153-1-1 0-1.654-1.794-3-4-3s-4 1.346-4 3c0 .5522847-.4477153 1-1 1s-1-.4477153-1-1c0-2.757 2.691-5 6-5s6 2.243 6 5c0 .5522847-.4477153 1-1 1z"/><path id="Shape" d="m5.46 27h-2.46c-1.10320187-.0032948-1.9967052-.8967981-2-2v-2c.0032948-1.1032019.89679813-1.9967052 2-2h2.46z"/><path id="Shape" d="m52.54 21h2.46c1.1032019.0032948 1.9967052.8967981 2 2v2c-.0032948 1.1032019-.8967981 1.9967052-2 2h-2.46z"/></g><circle id="Oval" cx="43" cy="24" fill="#2fa8cc" r="10"/><path id="Shape" d="m50.87 17.83-14.79 13.38c-1.0398951-.9979903-1.8517689-2.2089786-2.38-3.55l13.87-12.55c1.2833714.6579411 2.4091414 1.5858485 3.3 2.72z" fill="#9fc9d3"/><circle id="Oval" cx="15" cy="24" fill="#2fa8cc" r="10"/><path id="Shape" d="m22.87 17.83-14.79 13.38c-1.03989512-.9979903-1.85176895-2.2089786-2.38-3.55l13.87-12.55c1.2833714.6579411 2.4091414 1.5858485 3.3 2.72z" fill="#9fc9d3"/></g></g></svg>