<svg viewBox="0 0 400 400" xmlns="http://www.w3.org/2000/svg"><g transform="matrix(4,0,0,4,0,0)"><path d="M8.358 50.000 A40.000 40.000 0 1 0 88.358 50.000 A40.000 40.000 0 1 0 8.358 50.000 Z" fill="#e8f4fa" stroke="#daedf7" stroke-linecap="round" stroke-linejoin="round"></path><path d="M66.834,75.244h-37.2a2.512,2.512,0,0,1-2.512-2.512V24.563a2.619,2.619,0,0,1,2.619-2.618H66.726a2.618,2.618,0,0,1,2.619,2.618V72.732A2.512,2.512,0,0,1,66.834,75.244Z" fill="#debb7e"></path><path d="M66.726,21.945H29.74a2.619,2.619,0,0,0-2.619,2.618v3.612a2.769,2.769,0,0,1,2.769-2.769H66.576a2.769,2.769,0,0,1,2.769,2.769V24.563A2.618,2.618,0,0,0,66.726,21.945Z" fill="#f0d5a8"></path><path d="M66.834,75.244h-37.2a2.512,2.512,0,0,1-2.512-2.512V24.563a2.619,2.619,0,0,1,2.619-2.618H66.726a2.618,2.618,0,0,1,2.619,2.618V72.732A2.512,2.512,0,0,1,66.834,75.244Z" fill="none" stroke="#45413c" stroke-linecap="round" stroke-linejoin="round"></path><path d="M31.274 26.098 L65.191 26.098 L65.191 71.090 L31.274 71.090 Z" fill="#ffffff" stroke="#45413c" stroke-linecap="round" stroke-linejoin="round"></path><path d="M36.11 37.173L57.259 37.173" fill="none" stroke="#45413c" stroke-linecap="round" stroke-linejoin="round"></path><path d="M36.11 43.403L57.259 43.403" fill="none" stroke="#45413c" stroke-linecap="round" stroke-linejoin="round"></path><path d="M36.11 50.325L50.85 50.325" fill="none" stroke="#45413c" stroke-linecap="round" stroke-linejoin="round"></path><path d="M38.76,19.868H57.706a1.256,1.256,0,0,1,1.256,1.256V27.61a1.257,1.257,0,0,1-1.257,1.257H38.761A1.257,1.257,0,0,1,37.5,27.61V21.124A1.256,1.256,0,0,1,38.76,19.868Z" fill="#e8f4fa"></path><path d="M57.705,19.868H38.761A1.257,1.257,0,0,0,37.5,21.125v2.9a1.385,1.385,0,0,1,1.385-1.385H57.578a1.385,1.385,0,0,1,1.384,1.385v-2.9A1.257,1.257,0,0,0,57.705,19.868Z" fill="#ffffff"></path><path d="M38.76,19.868H57.706a1.256,1.256,0,0,1,1.256,1.256V27.61a1.257,1.257,0,0,1-1.257,1.257H38.761A1.257,1.257,0,0,1,37.5,27.61V21.124A1.256,1.256,0,0,1,38.76,19.868Z" fill="none" stroke="#45413c" stroke-linecap="round" stroke-linejoin="round"></path><path d="M42.349 26.098L54.117 26.098" fill="none" stroke="#45413c" stroke-linecap="round" stroke-linejoin="round"></path><path d="M45.118 19.176 A3.461 3.461 0 1 0 52.040 19.176 A3.461 3.461 0 1 0 45.118 19.176 Z" fill="#e8f4fa"></path><path d="M48.579,18.484a3.459,3.459,0,0,1,3.169,2.077,3.461,3.461,0,1,0-6.338,0A3.459,3.459,0,0,1,48.579,18.484Z" fill="#ffffff"></path><path d="M45.118 19.176 A3.461 3.461 0 1 0 52.040 19.176 A3.461 3.461 0 1 0 45.118 19.176 Z" fill="none" stroke="#45413c" stroke-linecap="round" stroke-linejoin="round"></path><path d="M65.192,41.512l-9.85,10.67a3.463,3.463,0,0,0,.2,4.89,3.4,3.4,0,0,0,1.493.8l-3.2,3.2.49.49-4.325,4.324a1.387,1.387,0,0,0,.964,2.369,1.494,1.494,0,0,0,.3-.031c3.79-.806,5.718-1.97,5.74-3.464l.262-.262.979.979,2.421-2.42a3.5,3.5,0,0,0,.547.361,3.465,3.465,0,0,0,3.99-.527Z" fill="#45413c" opacity=".15"></path><path d="M62.806 49.894L74.931 54.417 80.031 46.237 66.847 42.677 62.806 49.894z" fill="#ffbe3d"></path><path d="M82.136,63.7l9.39-9.39a1.1,1.1,0,0,1,.116-.1c-3.143-2.728-3.919-8.5-9.963-11.662-7.958-4.155-17.8-3.164-26.444,7.631a2.31,2.31,0,0,0,3.593,2.9c.572-.709,1.147-1.367,1.723-1.984a2.3,2.3,0,0,0,.716.517c9.045,6.848,10.868,7.718,13.086,8.58,3.421,1.33,4.932,1.972,7.447,4.249A1.15,1.15,0,0,1,82.136,63.7Zm-6.2-14.617A5.129,5.129,0,0,1,69.5,50.3L64.154,47.85c3.121-2.285,6.27-3.238,9.407-2.829C76.229,45.368,76.847,47.728,75.939,49.079Z" fill="#ffda8f"></path><path d="M89.811,56.02l1.715-1.714a1.1,1.1,0,0,1,.116-.1c-3.143-2.728-3.919-8.5-9.963-11.662-7.958-4.155-17.8-3.164-26.444,7.631a2.318,2.318,0,0,0,.007,2.911,2.31,2.31,0,0,1,.234-.36c8.645-10.8,17.663-11.485,25.692-7.47C83.837,46.589,87.418,52.877,89.811,56.02Z" fill="#ffe9bd"></path><path d="M32.999 83.257 A15.012 1.732 0 1 0 63.023 83.257 A15.012 1.732 0 1 0 32.999 83.257 Z" fill="#45413c" opacity=".15"></path><path d="M38.222,57.518a3.077,3.077,0,1,0,5.252,2.175v.616a2.461,2.461,0,0,0,4.922,0,2.461,2.461,0,0,0,2.461,2.461H52.7" fill="none" stroke="#ff6242" stroke-linecap="round" stroke-linejoin="round"></path><path d="M68.745,50.838a2.309,2.309,0,0,1,2.181,2.431l-.406,7.5a2.309,2.309,0,1,1-4.612-.25l.406-7.5A2.31,2.31,0,0,1,68.745,50.838Z" fill="#ffbe3d" stroke="#45413c" stroke-linecap="round" stroke-linejoin="round"></path><path d="M66.359,50.118a2.31,2.31,0,0,1,.953,3.124l-2.757,5.364a2.31,2.31,0,0,1-4.077-2.171l2.757-5.364A2.309,2.309,0,0,1,66.359,50.118Z" fill="#ffbe3d" stroke="#45413c" stroke-linecap="round" stroke-linejoin="round"></path><path d="M91.526,54.306a1.1,1.1,0,0,1,.116-.1c-3.143-2.728-3.919-8.5-9.963-11.662-7.958-4.155-17.8-3.164-26.444,7.631a2.31,2.31,0,0,0,3.593,2.9c.572-.709,1.147-1.367,1.723-1.984a2.3,2.3,0,0,0,.716.517c9.045,6.848,10.868,7.718,13.086,8.58,3.421,1.33,4.932,1.972,7.447,4.249a1.15,1.15,0,0,1,.336-.743m-6.2-14.617A5.129,5.129,0,0,1,69.5,50.3L64.154,47.85c3.121-2.285,6.27-3.238,9.407-2.829C76.229,45.368,76.847,47.728,75.939,49.079Z" fill="none" stroke="#45413c" stroke-linecap="round" stroke-linejoin="round"></path><path d="M73.939,49.538,70.93,45.3l9.375-6.66a2.356,2.356,0,0,1,3.286.556l.28.394a2.356,2.356,0,0,1-.557,3.286Z" fill="#ff6242"></path><path d="M83.748,39.425c-.007-.01-.01-.02-.017-.03h0a2.392,2.392,0,0,0-3.623-.614L70.93,45.3l1.454,2.046Z" fill="#ff866e"></path><path d="M73.939,49.538,70.93,45.3l9.375-6.66a2.356,2.356,0,0,1,3.286.556l.28.394a2.356,2.356,0,0,1-.557,3.286Z" fill="none" stroke="#45413c" stroke-linecap="round" stroke-linejoin="round"></path><path d="M71.339,42.886l6.589-4.681a1.7,1.7,0,0,1,2.416.409" fill="none" stroke="#45413c" stroke-linecap="round" stroke-linejoin="round"></path><path d="M56.187,57.191l-4.63,3.289a.577.577,0,0,0,.351,1.049c1.941-.08,4.715-.432,4.675-1.786l.941-.669Z" fill="#ffe500" stroke="#45413c" stroke-linecap="round" stroke-linejoin="round"></path><path d="M57.859,59.544l-1.672-2.353a.577.577,0,0,1,.136-.8l2.354-1.672,2.34,3.3-2.353,1.672A.578.578,0,0,1,57.859,59.544Z" fill="#daedf7"></path><path d="M59.717,56.179l-1.041-1.465-2.353,1.672a.577.577,0,0,0-.136.8l.689.97Z" fill="#e8f4fa"></path><path d="M57.859,59.544l-1.672-2.353a.577.577,0,0,1,.136-.8l2.354-1.672,2.34,3.3-2.353,1.672A.578.578,0,0,1,57.859,59.544Z" fill="none" stroke="#45413c" stroke-linecap="round" stroke-linejoin="round"></path><path d="M60.683,57.538l-1.672-2.353a1.155,1.155,0,0,1,.273-1.61L70.93,45.3l3.009,4.236L62.293,57.811A1.155,1.155,0,0,1,60.683,57.538Z" fill="#ff6242"></path><path d="M59.717,56.179l12.667-8.831L70.93,45.3,59.284,53.575a1.154,1.154,0,0,0-.273,1.61Z" fill="#ff866e"></path><path d="M60.683,57.538l-1.672-2.353a1.155,1.155,0,0,1,.273-1.61L70.93,45.3l3.009,4.236L62.293,57.811A1.155,1.155,0,0,1,60.683,57.538Z" fill="none" stroke="#45413c" stroke-linecap="round" stroke-linejoin="round"></path><path d="M75.939,49.079A5.129,5.129,0,0,1,69.5,50.3l-6.314-2.887a2.31,2.31,0,1,0-1.922,4.2c9.045,6.848,10.868,7.718,13.086,8.58" fill="#ffcebf"></path><path d="M63.91,50.439l6.314,2.887A3.864,3.864,0,0,0,75.75,50.4l.189-1.323A5.129,5.129,0,0,1,69.5,50.3l-6.314-2.887a2.307,2.307,0,0,0-2.247,4.012A2.3,2.3,0,0,1,63.91,50.439Z" fill="#ffdcd1"></path><path d="M75.939,49.079A5.129,5.129,0,0,1,69.5,50.3l-6.314-2.887a2.31,2.31,0,1,0-1.922,4.2c9.045,6.848,10.868,7.718,13.086,8.58" fill="none" stroke="#45413c" stroke-linecap="round" stroke-linejoin="round"></path><path d="M75.939,49.079A5.129,5.129,0,0,1,69.5,50.3l-6.314-2.887a2.31,2.31,0,1,0-1.922,4.2c9.045,6.848,10.868,7.718,13.086,8.58" fill="#ffda8f"></path><path d="M63.91,50.439l6.314,2.887A3.864,3.864,0,0,0,75.75,50.4l.189-1.323A5.129,5.129,0,0,1,69.5,50.3l-6.314-2.887a2.307,2.307,0,0,0-2.247,4.012A2.3,2.3,0,0,1,63.91,50.439Z" fill="#ffe9bd"></path><path d="M75.939,49.079A5.129,5.129,0,0,1,69.5,50.3l-6.314-2.887a2.31,2.31,0,1,0-1.922,4.2c9.045,6.848,10.868,7.718,13.086,8.58" fill="none" stroke="#45413c" stroke-linecap="round" stroke-linejoin="round"></path></g></svg>